# xmcd CD database file
#
# Track frame offsets:
#	151
#	14280
#	25345
#	34242
#	43732
#	50813
#	64666
#	77669
#	90357
#	101535
#
# Disc length: 1532 seconds
#
# Revision: 0
# Processed by: cddbd v1.5.1PL2 Copyright (c) Steve Scherf et al.
# Submitted via: CDex 1.51
#
DISCID=7805fa0a
DTITLE=Charlie Byrd - Guitar Stylings
DYEAR=1998
DGENRE=Jazz
TTITLE0=Songs of the Bells (choro)
TTITLE1=Viola Que Brada
TTITLE2=Tre Giorni
TTITLE3=A Carol for All Seasons
TTITLE4=Freddies Tune
TTITLE5=Doodlin
TTITLE6=Next to Nothing
TTITLE7=Try Me Blues
TTITLE8=Salon
TTITLE9=Jammin' in Zee My Nor
EXTD=YEAR: 1998
EXTT0=
EXTT1=
EXTT2=
EXTT3=
EXTT4=
EXTT5=
EXTT6=
EXTT7=
EXTT8=
EXTT9=
PLAYORDER=
